<?xml version="1.0" encoding="UTF-8"?>
<svg id="Layer_1" data-name="Layer 1" xmlns="http://www.w3.org/2000/svg" xmlns:xlink="http://www.w3.org/1999/xlink" viewBox="0 0 1064.44 1064.44">
  <defs>
    <style>
      .cls-1 {
        fill: url(#radial-gradient);
      }
    </style>
    <radialGradient id="radial-gradient" cx="532.22" cy="532.22" fx="532.22" fy="532.22" r="531.72" gradientUnits="userSpaceOnUse">
      <stop offset="0" stop-color="#fff"/>
      <stop offset=".36" stop-color="#fdfdfd"/>
      <stop offset=".5" stop-color="#f5f5f5"/>
      <stop offset=".6" stop-color="#e9e9e9"/>
      <stop offset=".69" stop-color="#d8d8d8"/>
      <stop offset=".77" stop-color="#c1c1c1"/>
      <stop offset=".83" stop-color="#a5a5a5"/>
      <stop offset=".89" stop-color="#848484"/>
      <stop offset=".95" stop-color="#5f5f5f"/>
      <stop offset="1" stop-color="#343434"/>
      <stop offset="1" stop-color="#323232"/>
    </radialGradient>
  </defs>
  <path class="cls-1" d="M532.22,1063.94c-71.78,0-141.42-14.06-206.97-41.79-63.32-26.78-120.18-65.12-169.01-113.95-48.83-48.83-87.17-105.7-113.95-169.01C14.56,673.63.5,604,.5,532.22s14.06-141.42,41.78-206.97c26.78-63.32,65.12-120.18,113.95-169.01,48.83-48.83,105.7-87.17,169.01-113.95C390.8,14.56,460.44.5,532.22.5s141.42,14.06,206.97,41.78c63.32,26.78,120.18,65.12,169.01,113.95s87.17,105.7,113.95,169.01c27.73,65.55,41.79,135.19,41.79,206.97s-14.06,141.42-41.79,206.97c-26.78,63.32-65.12,120.18-113.95,169.01s-105.7,87.17-169.01,113.95c-65.55,27.73-135.19,41.79-206.97,41.79Z"/>
  <path d="M532.22,1c71.71,0,141.28,14.05,206.77,41.75,63.26,26.76,120.07,65.06,168.85,113.84,48.79,48.79,87.09,105.6,113.84,168.85,27.7,65.49,41.75,135.06,41.75,206.77s-14.05,141.28-41.75,206.77c-26.76,63.26-65.06,120.07-113.84,168.85-48.79,48.79-105.6,87.09-168.85,113.84-65.49,27.7-135.06,41.75-206.77,41.75s-141.28-14.05-206.77-41.75c-63.26-26.76-120.07-65.06-168.85-113.84-48.79-48.79-87.09-105.6-113.84-168.85C15.05,673.5,1,603.93,1,532.22s14.05-141.28,41.75-206.77c26.76-63.26,65.06-120.07,113.84-168.85,48.79-48.79,105.6-87.09,168.85-113.84C390.93,15.05,460.5,1,532.22,1M532.22,0C238.28,0,0,238.28,0,532.22s238.28,532.22,532.22,532.22,532.22-238.28,532.22-532.22S826.15,0,532.22,0h0Z"/>
</svg>